<mxfile host="app.diagrams.net" modified="2023-12-08T13:58:34.146Z" agent="Mozilla/5.0 (Windows NT 10.0; Win64; x64) AppleWebKit/537.36 (KHTML, like Gecko) Chrome/119.0.0.0 Safari/537.36" etag="mktseVJEwSNsR20ZWz1s" version="22.1.7" type="github">
  <diagram name="第 1 页" id="_pGcNhD7Bbz_a0pf2VkH">
    <mxGraphModel dx="794" dy="432" grid="1" gridSize="10" guides="1" tooltips="1" connect="1" arrows="1" fold="1" page="1" pageScale="1" pageWidth="827" pageHeight="1169" math="0" shadow="0">
      <root>
        <mxCell id="0" />
        <mxCell id="1" parent="0" />
        <mxCell id="UGleV3NYl0aYAame72-G-31" value="" style="rounded=0;whiteSpace=wrap;html=1;fillColor=#fff2cc;strokeColor=#d6b656;fontSize=15;" vertex="1" parent="1">
          <mxGeometry x="970" y="160" width="190" height="280" as="geometry" />
        </mxCell>
        <mxCell id="UGleV3NYl0aYAame72-G-20" value="" style="rounded=0;whiteSpace=wrap;html=1;fillColor=#d5e8d4;strokeColor=#82b366;fontSize=15;" vertex="1" parent="1">
          <mxGeometry x="510" y="160" width="460" height="280" as="geometry" />
        </mxCell>
        <mxCell id="UGleV3NYl0aYAame72-G-18" value="" style="rounded=0;whiteSpace=wrap;html=1;fillColor=#dae8fc;strokeColor=#6c8ebf;fontSize=15;" vertex="1" parent="1">
          <mxGeometry x="30" y="160" width="480" height="280" as="geometry" />
        </mxCell>
        <mxCell id="UGleV3NYl0aYAame72-G-6" value="" style="edgeStyle=orthogonalEdgeStyle;rounded=0;orthogonalLoop=1;jettySize=auto;html=1;fontSize=15;" edge="1" parent="1" source="UGleV3NYl0aYAame72-G-1" target="UGleV3NYl0aYAame72-G-3">
          <mxGeometry relative="1" as="geometry" />
        </mxCell>
        <mxCell id="UGleV3NYl0aYAame72-G-1" value="网络初始化" style="rounded=1;whiteSpace=wrap;html=1;fontSize=15;" vertex="1" parent="1">
          <mxGeometry x="40" y="230" width="120" height="60" as="geometry" />
        </mxCell>
        <mxCell id="UGleV3NYl0aYAame72-G-7" value="" style="edgeStyle=orthogonalEdgeStyle;rounded=0;orthogonalLoop=1;jettySize=auto;html=1;fontSize=15;" edge="1" parent="1" source="UGleV3NYl0aYAame72-G-3" target="UGleV3NYl0aYAame72-G-4">
          <mxGeometry relative="1" as="geometry" />
        </mxCell>
        <mxCell id="UGleV3NYl0aYAame72-G-3" value="范数剪枝" style="rounded=1;whiteSpace=wrap;html=1;fontSize=15;" vertex="1" parent="1">
          <mxGeometry x="200" y="230" width="120" height="60" as="geometry" />
        </mxCell>
        <mxCell id="UGleV3NYl0aYAame72-G-9" style="edgeStyle=orthogonalEdgeStyle;rounded=0;orthogonalLoop=1;jettySize=auto;html=1;exitX=1;exitY=0.5;exitDx=0;exitDy=0;entryX=1;entryY=0.5;entryDx=0;entryDy=0;fontSize=15;" edge="1" parent="1" source="UGleV3NYl0aYAame72-G-4" target="UGleV3NYl0aYAame72-G-5">
          <mxGeometry relative="1" as="geometry" />
        </mxCell>
        <mxCell id="UGleV3NYl0aYAame72-G-14" style="edgeStyle=orthogonalEdgeStyle;rounded=0;orthogonalLoop=1;jettySize=auto;html=1;exitX=1;exitY=0.5;exitDx=0;exitDy=0;entryX=0;entryY=0.5;entryDx=0;entryDy=0;fontSize=15;" edge="1" parent="1" source="UGleV3NYl0aYAame72-G-4" target="UGleV3NYl0aYAame72-G-11">
          <mxGeometry relative="1" as="geometry" />
        </mxCell>
        <mxCell id="UGleV3NYl0aYAame72-G-16" style="edgeStyle=orthogonalEdgeStyle;rounded=0;orthogonalLoop=1;jettySize=auto;html=1;exitX=1;exitY=0.5;exitDx=0;exitDy=0;entryX=0;entryY=0.5;entryDx=0;entryDy=0;fontSize=15;" edge="1" parent="1" source="UGleV3NYl0aYAame72-G-4" target="UGleV3NYl0aYAame72-G-12">
          <mxGeometry relative="1" as="geometry" />
        </mxCell>
        <mxCell id="UGleV3NYl0aYAame72-G-4" value="前向推理" style="rounded=1;whiteSpace=wrap;html=1;fontSize=15;" vertex="1" parent="1">
          <mxGeometry x="360" y="230" width="120" height="60" as="geometry" />
        </mxCell>
        <mxCell id="UGleV3NYl0aYAame72-G-10" style="edgeStyle=orthogonalEdgeStyle;rounded=0;orthogonalLoop=1;jettySize=auto;html=1;exitX=0;exitY=0.5;exitDx=0;exitDy=0;entryX=0;entryY=0.5;entryDx=0;entryDy=0;fontSize=15;" edge="1" parent="1" source="UGleV3NYl0aYAame72-G-5" target="UGleV3NYl0aYAame72-G-3">
          <mxGeometry relative="1" as="geometry" />
        </mxCell>
        <mxCell id="UGleV3NYl0aYAame72-G-5" value="参数更新" style="rounded=1;whiteSpace=wrap;html=1;fontSize=15;" vertex="1" parent="1">
          <mxGeometry x="200" y="340" width="120" height="60" as="geometry" />
        </mxCell>
        <mxCell id="UGleV3NYl0aYAame72-G-15" value="" style="edgeStyle=orthogonalEdgeStyle;rounded=0;orthogonalLoop=1;jettySize=auto;html=1;fontSize=15;" edge="1" parent="1" source="UGleV3NYl0aYAame72-G-11" target="UGleV3NYl0aYAame72-G-13">
          <mxGeometry relative="1" as="geometry" />
        </mxCell>
        <mxCell id="UGleV3NYl0aYAame72-G-11" value="权重线性量化" style="rounded=1;whiteSpace=wrap;html=1;fontSize=15;" vertex="1" parent="1">
          <mxGeometry x="580" y="230" width="120" height="60" as="geometry" />
        </mxCell>
        <mxCell id="UGleV3NYl0aYAame72-G-17" style="edgeStyle=orthogonalEdgeStyle;rounded=0;orthogonalLoop=1;jettySize=auto;html=1;exitX=1;exitY=0.5;exitDx=0;exitDy=0;entryX=0;entryY=0.5;entryDx=0;entryDy=0;fontSize=15;" edge="1" parent="1" source="UGleV3NYl0aYAame72-G-12" target="UGleV3NYl0aYAame72-G-13">
          <mxGeometry relative="1" as="geometry">
            <Array as="points">
              <mxPoint x="730" y="340" />
              <mxPoint x="730" y="260" />
            </Array>
          </mxGeometry>
        </mxCell>
        <mxCell id="UGleV3NYl0aYAame72-G-12" value="可适应性量化" style="rounded=1;whiteSpace=wrap;html=1;fontSize=15;" vertex="1" parent="1">
          <mxGeometry x="580" y="310" width="120" height="60" as="geometry" />
        </mxCell>
        <mxCell id="UGleV3NYl0aYAame72-G-24" value="" style="edgeStyle=orthogonalEdgeStyle;rounded=0;orthogonalLoop=1;jettySize=auto;html=1;fontSize=15;" edge="1" parent="1" source="UGleV3NYl0aYAame72-G-13" target="UGleV3NYl0aYAame72-G-23">
          <mxGeometry relative="1" as="geometry" />
        </mxCell>
        <mxCell id="UGleV3NYl0aYAame72-G-13" value="激活值线性量化" style="rounded=1;whiteSpace=wrap;html=1;fontSize=15;" vertex="1" parent="1">
          <mxGeometry x="820" y="230" width="120" height="60" as="geometry" />
        </mxCell>
        <mxCell id="UGleV3NYl0aYAame72-G-19" value="结构化剪枝" style="text;html=1;strokeColor=none;fillColor=none;align=center;verticalAlign=middle;whiteSpace=wrap;rounded=0;fontSize=18;" vertex="1" parent="1">
          <mxGeometry x="30" y="160" width="110" height="50" as="geometry" />
        </mxCell>
        <mxCell id="UGleV3NYl0aYAame72-G-21" value="参数量化" style="text;html=1;strokeColor=none;fillColor=none;align=center;verticalAlign=middle;whiteSpace=wrap;rounded=0;fontSize=18;" vertex="1" parent="1">
          <mxGeometry x="510" y="160" width="120" height="50" as="geometry" />
        </mxCell>
        <mxCell id="UGleV3NYl0aYAame72-G-23" value="输出" style="rounded=1;whiteSpace=wrap;html=1;fontSize=15;" vertex="1" parent="1">
          <mxGeometry x="1000" y="230" width="120" height="60" as="geometry" />
        </mxCell>
        <mxCell id="UGleV3NYl0aYAame72-G-27" style="edgeStyle=orthogonalEdgeStyle;rounded=0;orthogonalLoop=1;jettySize=auto;html=1;exitX=0;exitY=0.5;exitDx=0;exitDy=0;entryX=0;entryY=0.5;entryDx=0;entryDy=0;" edge="1" parent="1" source="UGleV3NYl0aYAame72-G-26" target="UGleV3NYl0aYAame72-G-13">
          <mxGeometry relative="1" as="geometry">
            <Array as="points">
              <mxPoint x="770" y="380" />
              <mxPoint x="770" y="260" />
            </Array>
          </mxGeometry>
        </mxCell>
        <mxCell id="UGleV3NYl0aYAame72-G-30" value="&lt;font style=&quot;font-size: 15px;&quot;&gt;校准&lt;/font&gt;" style="edgeLabel;html=1;align=center;verticalAlign=middle;resizable=0;points=[];" vertex="1" connectable="0" parent="UGleV3NYl0aYAame72-G-27">
          <mxGeometry x="-0.0444" y="-1" relative="1" as="geometry">
            <mxPoint as="offset" />
          </mxGeometry>
        </mxCell>
        <mxCell id="UGleV3NYl0aYAame72-G-26" value="校准数据集" style="rounded=1;whiteSpace=wrap;html=1;fontSize=15;" vertex="1" parent="1">
          <mxGeometry x="810" y="350" width="120" height="60" as="geometry" />
        </mxCell>
        <mxCell id="UGleV3NYl0aYAame72-G-32" value="参数量化" style="text;html=1;strokeColor=none;fillColor=none;align=center;verticalAlign=middle;whiteSpace=wrap;rounded=0;fontSize=18;" vertex="1" parent="1">
          <mxGeometry x="960" y="160" width="120" height="50" as="geometry" />
        </mxCell>
      </root>
    </mxGraphModel>
  </diagram>
</mxfile>
